<svg aria-hidden="true" data-prefix="fal" data-icon="envelopes" class="svg-inline--fa fa-envelopes" xmlns="http://www.w3.org/2000/svg" viewBox="0 0 576 512"><path fill="currentColor" d="M512 64c17.7 0 32 14.3 32 32v19.6L364.4 247.3c-16.9 12.4-39.9 12.4-56.8 0L128 115.6V96c0-17.7 14.3-32 32-32h352zM128 320V155.3l160.7 117.8c28.2 20.7 66.5 20.7 94.6 0L544 155.3V320c0 17.7-14.3 32-32 32H160c-17.7 0-32-14.3-32-32zm32-288c-35.3 0-64 28.7-64 64v224c0 35.3 28.7 64 64 64h352c35.3 0 64-28.7 64-64V96c0-35.3-28.7-64-64-64H160zM32 112c0-8.8-7.2-16-16-16s-16 7.2-16 16v240c0 70.7 57.3 128 128 128h336c8.8 0 16-7.2 16-16s-7.2-16-16-16H128c-53 0-96-43-96-96V112z"/></svg>