<svg aria-hidden="true" data-prefix="fal" data-icon="location-crosshairs" class="svg-inline--fa fa-location-crosshairs" xmlns="http://www.w3.org/2000/svg" viewBox="0 0 512 512"><path fill="currentColor" d="M256 0c8.8 0 16 7.2 16 16v48.7c93.3 7.7 167.6 82.1 175.3 175.3H496c8.8 0 16 7.2 16 16s-7.2 16-16 16h-48.7c-7.7 93.3-82.1 167.6-175.3 175.3V496c0 8.8-7.2 16-16 16s-16-7.2-16-16v-48.7c-93.3-7.7-167.6-82-175.3-175.3H16c-8.8 0-16-7.2-16-16s7.2-16 16-16h48.7c7.7-93.3 82-167.6 175.3-175.3V16c0-8.8 7.2-16 16-16zM96 256a160 160 0 1 0 320 0 160 160 0 1 0-320 0zm224 0a64 64 0 1 0-128 0 64 64 0 1 0 128 0zm-160 0a96 96 0 1 1 192 0 96 96 0 1 1-192 0z"/></svg>